<svg xmlns="http://www.w3.org/2000/svg" xmlns:xlink="http://www.w3.org/1999/xlink" width="265" height="359" version="1.1" viewBox="0 0 265 359"><title/><desc/><defs><rect id="path-1" width="80" height="10" x="89" y="299" rx="5"/><filter id="filter-2" width="200%" height="200%" x="-50%" y="-50%" filterUnits="objectBoundingBox"><feOffset dx="0" dy="4" in="SourceAlpha" result="shadowOffsetOuter1"/><feGaussianBlur in="shadowOffsetOuter1" result="shadowBlurOuter1" stdDeviation="2"/><feColorMatrix in="shadowBlurOuter1" type="matrix" values="0 0 0 0 0 0 0 0 0 0 0 0 0 0 0 0 0 0 0.5 0"/></filter><rect id="path-3" width="60" height="10" x="98.787" y="319" rx="5"/><filter id="filter-4" width="200%" height="200%" x="-50%" y="-50%" filterUnits="objectBoundingBox"><feOffset dx="0" dy="4" in="SourceAlpha" result="shadowOffsetOuter1"/><feGaussianBlur in="shadowOffsetOuter1" result="shadowBlurOuter1" stdDeviation="2"/><feColorMatrix in="shadowBlurOuter1" type="matrix" values="0 0 0 0 0 0 0 0 0 0 0 0 0 0 0 0 0 0 0.5 0"/></filter><rect id="path-5" width="40" height="10" x="108.787" y="339" rx="5"/><filter id="filter-6" width="200%" height="200%" x="-50%" y="-50%" filterUnits="objectBoundingBox"><feOffset dx="0" dy="4" in="SourceAlpha" result="shadowOffsetOuter1"/><feGaussianBlur in="shadowOffsetOuter1" result="shadowBlurOuter1" stdDeviation="2"/><feColorMatrix in="shadowBlurOuter1" type="matrix" values="0 0 0 0 0 0 0 0 0 0 0 0 0 0 0 0 0 0 0.5 0"/></filter><path id="path-7" d="M79.2629852,249 C60.7644534,223.167765 28.7867966,187.494572 28.7867966,159.47619 C28.7867966,103.984723 73.7715193,59 129.262987,59 C184.754455,59 229.739178,103.984723 229.739178,159.47619 C229.739178,187.494572 197.761525,223.167765 179.262993,249 C179.262987,249.000609 179.262987,249.00121 179.262987,249.00181 L179.262987,284.99819 C179.262987,287.208329 177.463457,289 175.265664,289 L83.2603105,289 C81.0526497,289 79.262987,287.206909 79.262987,284.99819 L79.262987,249.00181 C79.262987,249.001208 79.2629872,249.000605 79.2629874,249.000003 L79.2629852,249 Z"/><filter id="filter-8" width="200%" height="200%" x="-50%" y="-50%" filterUnits="objectBoundingBox"><feOffset dx="0" dy="4" in="SourceAlpha" result="shadowOffsetOuter1"/><feGaussianBlur in="shadowOffsetOuter1" result="shadowBlurOuter1" stdDeviation="2"/><feColorMatrix in="shadowBlurOuter1" type="matrix" values="0 0 0 0 0 0 0 0 0 0 0 0 0 0 0 0 0 0 0.5 0"/></filter><path id="path-9" d="M108.958715,174.051114 L99.8704358,114.977303 C99.3669059,111.704359 101.188169,110.537416 103.953497,112.380968 L108.963931,115.721258 C111.722474,117.560286 116.188165,117.56481 118.953489,115.721258 L123.963916,112.380968 C126.722454,110.54194 131.188149,110.537416 133.953481,112.380968 L138.963924,115.721258 C141.72247,117.560286 146.188169,117.56481 148.953497,115.721258 L153.963931,112.380968 C156.722474,110.54194 158.551194,111.699998 158.046993,114.977303 L148.958715,174.051117 L148.958715,233.052582 C148.958715,236.365481 146.272091,239.051117 142.959494,239.051117 L114.957935,239.051114 C111.644657,239.051114 108.958715,236.361413 108.958715,233.052579 L108.958715,174.051114 Z"/><filter id="filter-10" width="200%" height="200%" x="-50%" y="-50%" filterUnits="objectBoundingBox"><feMorphology in="SourceAlpha" operator="dilate" radius="4" result="shadowSpreadOuter1"/><feOffset dx="0" dy="2" in="shadowSpreadOuter1" result="shadowOffsetOuter1"/><feMorphology in="SourceAlpha" operator="erode" radius="4" result="shadowInner"/><feOffset dx="0" dy="2" in="shadowInner" result="shadowInner"/><feComposite in="shadowOffsetOuter1" in2="shadowInner" operator="out" result="shadowOffsetOuter1"/><feGaussianBlur in="shadowOffsetOuter1" result="shadowBlurOuter1" stdDeviation="1"/><feColorMatrix in="shadowBlurOuter1" type="matrix" values="0 0 0 0 0 0 0 0 0 0 0 0 0 0 0 0 0 0 0.5 0"/></filter><circle id="path-11" cx="148.787" cy="233" r="4"/><filter id="filter-12" width="200%" height="200%" x="-50%" y="-50%" filterUnits="objectBoundingBox"><feOffset dx="0" dy="2" in="SourceAlpha" result="shadowOffsetOuter1"/><feGaussianBlur in="shadowOffsetOuter1" result="shadowBlurOuter1" stdDeviation="1"/><feColorMatrix in="shadowBlurOuter1" type="matrix" values="0 0 0 0 0 0 0 0 0 0 0 0 0 0 0 0 0 0 0.5 0"/></filter><circle id="path-13" cx="108.787" cy="233" r="4"/><filter id="filter-14" width="200%" height="200%" x="-50%" y="-50%" filterUnits="objectBoundingBox"><feOffset dx="0" dy="2" in="SourceAlpha" result="shadowOffsetOuter1"/><feGaussianBlur in="shadowOffsetOuter1" result="shadowBlurOuter1" stdDeviation="1"/><feColorMatrix in="shadowBlurOuter1" type="matrix" values="0 0 0 0 0 0 0 0 0 0 0 0 0 0 0 0 0 0 0.5 0"/></filter><rect id="path-15" width="20" height="40" x="119" y="0" rx="6"/><filter id="filter-16" width="200%" height="200%" x="-50%" y="-50%" filterUnits="objectBoundingBox"><feOffset dx="0" dy="2" in="SourceAlpha" result="shadowOffsetOuter1"/><feGaussianBlur in="shadowOffsetOuter1" result="shadowBlurOuter1" stdDeviation="2"/><feColorMatrix in="shadowBlurOuter1" type="matrix" values="0 0 0 0 0 0 0 0 0 0 0 0 0 0 0 0 0 0 0.5 0"/></filter><path id="path-17" d="M186.00039,20.1954773 C187.657029,17.3260944 191.317948,16.3382682 194.196724,18.0003297 L201.123785,21.9996703 C203.993856,23.6567066 204.977196,27.3266846 203.320898,30.1954773 L189.320118,54.4455388 C187.663479,57.3149217 184.00256,58.302748 181.123785,56.6406864 L174.196724,52.6413459 C171.326652,50.9843095 170.343312,47.3143316 171.99961,44.4455388 L186.00039,20.1954773 L186.00039,20.1954773 Z"/><filter id="filter-18" width="200%" height="200%" x="-50%" y="-50%" filterUnits="objectBoundingBox"><feOffset dx="0" dy="2" in="SourceAlpha" result="shadowOffsetOuter1"/><feGaussianBlur in="shadowOffsetOuter1" result="shadowBlurOuter1" stdDeviation="2"/><feColorMatrix in="shadowBlurOuter1" type="matrix" values="0 0 0 0 0 0 0 0 0 0 0 0 0 0 0 0 0 0 0.5 0"/></filter><path id="path-19" d="M241.042182,62.2420895 C243.385023,59.8992482 247.176868,59.892597 249.527378,62.243107 L255.1833,67.8990286 C257.526703,70.2424319 257.526677,74.0418656 255.184317,76.3842251 L235.384225,96.1843174 C233.041384,98.5271587 229.249539,98.5338099 226.899029,96.1832999 L221.243107,90.5273782 C218.899704,88.183975 218.89973,84.3845412 221.242089,82.0421818 L241.042182,62.2420895 L241.042182,62.2420895 Z"/><filter id="filter-20" width="200%" height="200%" x="-50%" y="-50%" filterUnits="objectBoundingBox"><feOffset dx="0" dy="2" in="SourceAlpha" result="shadowOffsetOuter1"/><feGaussianBlur in="shadowOffsetOuter1" result="shadowBlurOuter1" stdDeviation="2"/><feColorMatrix in="shadowBlurOuter1" type="matrix" values="0 0 0 0 0 0 0 0 0 0 0 0 0 0 0 0 0 0 0.5 0"/></filter><path id="path-21" d="M51.9996102,30.1954773 C50.3429712,27.3260944 51.3179485,23.6617318 54.1967235,21.9996703 L61.1237845,18.0003297 C63.9938557,16.3432934 67.66382,17.3266846 69.3201183,20.1954773 L83.3208978,44.4455388 C84.9775368,47.3149217 84.0025596,50.9792843 81.1237845,52.6413459 L74.1967235,56.6406864 C71.3266524,58.2977228 67.656688,57.3143316 66.0003898,54.4455388 L51.9996102,30.1954773 L51.9996102,30.1954773 Z"/><filter id="filter-22" width="200%" height="200%" x="-50%" y="-50%" filterUnits="objectBoundingBox"><feOffset dx="0" dy="2" in="SourceAlpha" result="shadowOffsetOuter1"/><feGaussianBlur in="shadowOffsetOuter1" result="shadowBlurOuter1" stdDeviation="2"/><feColorMatrix in="shadowBlurOuter1" type="matrix" values="0 0 0 0 0 0 0 0 0 0 0 0 0 0 0 0 0 0 0.5 0"/></filter><path id="path-23" d="M2.24208948,76.3842251 C-0.100751849,74.0413838 -0.107403012,70.2495386 2.243107,67.8990286 L7.89902862,62.243107 C10.2424319,59.8997037 14.0418656,59.89973 16.3842251,62.2420895 L36.1843174,82.0421818 C38.5271587,84.3850231 38.5338099,88.1768682 36.1832999,90.5273782 L30.5273782,96.1832999 C28.183975,98.5267032 24.3845412,98.5266769 22.0421818,96.1843174 L2.24208948,76.3842251 L2.24208948,76.3842251 Z"/><filter id="filter-24" width="200%" height="200%" x="-50%" y="-50%" filterUnits="objectBoundingBox"><feOffset dx="0" dy="2" in="SourceAlpha" result="shadowOffsetOuter1"/><feGaussianBlur in="shadowOffsetOuter1" result="shadowBlurOuter1" stdDeviation="2"/><feColorMatrix in="shadowBlurOuter1" type="matrix" values="0 0 0 0 0 0 0 0 0 0 0 0 0 0 0 0 0 0 0.5 0"/></filter></defs><g id="Page-1" fill="none" fill-rule="evenodd" stroke="none" stroke-width="1"><g id="lamp" transform="translate(4.000000, 2.000000)"><g id="Rectangle-37"><use fill="#000" fill-opacity="1" filter="url(#filter-2)" xlink:href="#path-1"/><use fill="#FBF0B8" fill-rule="evenodd" xlink:href="#path-1"/></g><g id="Rectangle-37-Copy"><use fill="#000" fill-opacity="1" filter="url(#filter-4)" xlink:href="#path-3"/><use fill="#FBF0B8" fill-rule="evenodd" xlink:href="#path-3"/></g><g id="Rectangle-37-Copy-2"><use fill="#000" fill-opacity="1" filter="url(#filter-6)" xlink:href="#path-5"/><use fill="#FBF0B8" fill-rule="evenodd" xlink:href="#path-5"/></g><g id="Combined-Shape"><use fill="#000" fill-opacity="1" filter="url(#filter-8)" xlink:href="#path-7"/><use fill="#FBF0B8" fill-rule="evenodd" xlink:href="#path-7"/></g><g id="Rectangle-39"><use fill="#000" fill-opacity="1" filter="url(#filter-10)" xlink:href="#path-9"/><use stroke="#D98383" stroke-width="8" xlink:href="#path-9"/></g><rect id="Rectangle-40" width="60" height="26" x="98.787" y="233" fill="#FBF0B8"/><g id="Oval-55"><use fill="#000" fill-opacity="1" filter="url(#filter-12)" xlink:href="#path-11"/><use fill="#D98383" fill-rule="evenodd" xlink:href="#path-11"/></g><g id="Oval-55-Copy"><use fill="#000" fill-opacity="1" filter="url(#filter-14)" xlink:href="#path-13"/><use fill="#D98383" fill-rule="evenodd" xlink:href="#path-13"/></g><g id="Rectangle-41"><use fill="#000" fill-opacity="1" filter="url(#filter-16)" xlink:href="#path-15"/><use fill="#D98383" fill-rule="evenodd" xlink:href="#path-15"/></g><g id="Rectangle-41"><use fill="#000" fill-opacity="1" filter="url(#filter-18)" xlink:href="#path-17"/><use fill="#D98383" fill-rule="evenodd" xlink:href="#path-17"/></g><g id="Rectangle-41"><use fill="#000" fill-opacity="1" filter="url(#filter-20)" xlink:href="#path-19"/><use fill="#D98383" fill-rule="evenodd" xlink:href="#path-19"/></g><g id="Rectangle-41"><use fill="#000" fill-opacity="1" filter="url(#filter-22)" xlink:href="#path-21"/><use fill="#D98383" fill-rule="evenodd" xlink:href="#path-21"/></g><g id="Rectangle-41"><use fill="#000" fill-opacity="1" filter="url(#filter-24)" xlink:href="#path-23"/><use fill="#D98383" fill-rule="evenodd" xlink:href="#path-23"/></g></g></g></svg>